HIERARCHY
ROOT joint_Root
{
	OFFSET 0.0 0.0 0.0
	CHANNELS 6 Xposition Yposition Zposition Zrotation Xrotation Yrotation 
	JOINT Hips
	{
		OFFSET -17.1583 93.1646 452.98
		CHANNELS 6 Xposition Yposition Zposition Zrotation Xrotation Yrotation 
		JOINT Spine
		{
			OFFSET 15.7357 0.0 0.0
			CHANNELS 6 Xposition Yposition Zposition Zrotation Xrotation Yrotation 
			JOINT Chest
			{
				OFFSET 8.98455 -0.406207 0.0
				CHANNELS 6 Xposition Yposition Zposition Zrotation Xrotation Yrotation 
				JOINT Neck
				{
					OFFSET 16.3773 0.0 0.0
					CHANNELS 6 Xposition Yposition Zposition Zrotation Xrotation Yrotation 
					JOINT Head
					{
						OFFSET 6.45672 0.0 0.0
						CHANNELS 6 Xposition Yposition Zposition Zrotation Xrotation Yrotation 
						End Site
						{
							OFFSET 0.0 0.0 0.0
						}
					}
				}
				JOINT Shoulder_L
				{
					OFFSET 12.9942 -0.242716 4.98039
					CHANNELS 6 Xposition Yposition Zposition Zrotation Xrotation Yrotation 
					JOINT UpperArm_L
					{
						OFFSET 5.34809 0.0 0.0
						CHANNELS 6 Xposition Yposition Zposition Zrotation Xrotation Yrotation 
						JOINT LowerArm_L
						{
							OFFSET 24.3286 1.87007e-05 0.0
							CHANNELS 6 Xposition Yposition Zposition Zrotation Xrotation Yrotation 
							JOINT Hand_L
							{
								OFFSET 22.2916 0.0 0.0
								CHANNELS 6 Xposition Yposition Zposition Zrotation Xrotation Yrotation 
								End Site
								{
									OFFSET 0.0 0.0 0.0
								}
							}
						}
					}
				}
				JOINT Shoulder_R
				{
					OFFSET 12.9945 -0.242716 -4.98039
					CHANNELS 6 Xposition Yposition Zposition Zrotation Xrotation Yrotation 
					JOINT UpperArm_R
					{
						OFFSET -5.34813 0.0 0.0
						CHANNELS 6 Xposition Yposition Zposition Zrotation Xrotation Yrotation 
						JOINT LowerArm_R
						{
							OFFSET -24.3289 0.000322201 0.0
							CHANNELS 6 Xposition Yposition Zposition Zrotation Xrotation Yrotation 
							JOINT Hand_R
							{
								OFFSET -22.2915 -0.000108084 0.0
								CHANNELS 6 Xposition Yposition Zposition Zrotation Xrotation Yrotation 
								End Site
								{
									OFFSET 0.0 0.0 0.0
								}
							}
						}
					}
				}
			}
		}
		JOINT UpperLeg_L
		{
			OFFSET -2.19248 -6.46944 0.0
			CHANNELS 6 Xposition Yposition Zposition Zrotation Xrotation Yrotation 
			JOINT LowerLeg_L
			{
				OFFSET 39.0811 0.0 -1.23785e-05
				CHANNELS 6 Xposition Yposition Zposition Zrotation Xrotation Yrotation 
				JOINT Foot_L
				{
					OFFSET 40.9854 0.0 -1.26872e-05
					CHANNELS 6 Xposition Yposition Zposition Zrotation Xrotation Yrotation 
					JOINT Toes_L
					{
						OFFSET 11.7543 0.0 0.0
						CHANNELS 6 Xposition Yposition Zposition Zrotation Xrotation Yrotation 
						End Site
						{
							OFFSET 0.0 0.0 0.0
						}
					}
				}
			}
		}
		JOINT UpperLeg_R
		{
			OFFSET -2.19251 6.46944 0.0
			CHANNELS 6 Xposition Yposition Zposition Zrotation Xrotation Yrotation 
			JOINT LowerLeg_R
			{
				OFFSET -39.0811 -0.00228153 -0.0401928
				CHANNELS 6 Xposition Yposition Zposition Zrotation Xrotation Yrotation 
				JOINT Foot_R
				{
					OFFSET -40.9854 0.0 0.0
					CHANNELS 6 Xposition Yposition Zposition Zrotation Xrotation Yrotation 
					JOINT Toes_R
					{
						OFFSET -11.7543 0.0 0.0
						CHANNELS 6 Xposition Yposition Zposition Zrotation Xrotation Yrotation 
						End Site
						{
							OFFSET 0.0 0.0 0.0
						}
					}
				}
			}
		}
	}
}
MOTION
Frames:	4
Frame Time:	0.0333333
0.000000 0.000000 0.000000 0.000000 0.000000 -0.000000 0.385049 92.655300 3.541480 86.964800 -4.221930 2.632420 15.735700 0.000005 -0.000001 87.922400 87.979700 -92.956800 8.984550 -0.406207 -0.000000 -3.692570 0.356253 -10.061000 16.377300 -0.000001 -0.000001 0.107906 0.443438 -6.898290 6.456720 -0.000001 -0.000000 2.219290 3.862160 -20.102200 12.994200 -0.242716 4.980390 -92.815900 8.718860 -72.023200 5.348090 -0.000007 -0.000001 -59.859500 4.734190 2.539220 24.328600 0.000019 0.000005 12.930900 28.310400 -25.832900 22.291600 -0.000001 0.000005 1.609200 4.840380 10.547000 12.994500 -0.242716 -4.980390 94.816600 -8.984710 -61.650000 -5.348130 -0.000001 -0.000004 -40.539100 -62.946200 -82.573000 -24.328900 0.000322 -0.000009 -1.019030 -8.121450 -7.169030 -22.291500 -0.000108 -0.000004 43.945600 5.549350 -8.675630 -2.192480 -6.469440 -0.000000 -173.277000 -8.199780 3.005400 39.081100 -0.000007 -0.000012 0.029267 -0.094621 17.187700 40.985400 -0.000006 -0.000013 0.579132 10.556800 -71.331600 11.754300 -0.000000 0.000003 -0.002171 0.198463 -8.524770 -2.192510 6.469440 -0.000001 176.695000 4.893210 -174.995000 -39.081100 -0.002282 -0.040193 -0.014454 0.089250 11.273500 -40.985400 0.000008 0.000006 -10.079700 9.414760 -67.021900 -11.754300 -0.000006 -0.000006 -0.010681 0.276323 -5.345690
0.000000 0.000000 0.000000 0.000000 0.000000 -0.000000 0.391988 92.648800 3.569140 86.967400 -4.227280 2.684780 15.735700 0.000005 -0.000001 87.956200 87.976000 -92.968000 8.984550 -0.406207 -0.000000 -3.685310 0.355801 -10.015700 16.377300 -0.000001 -0.000001 0.291571 0.377361 -6.845610 6.456720 -0.000001 -0.000000 2.338950 3.752150 -19.903500 12.994200 -0.242716 4.980390 -92.813500 8.706330 -72.013300 5.348090 -0.000007 -0.000001 -59.577900 4.639040 2.613880 24.328600 0.000019 0.000005 12.929500 28.108900 -25.978100 22.291600 -0.000001 0.000005 1.636200 4.838730 10.578800 12.994500 -0.242716 -4.980390 94.793300 -8.931460 -61.625900 -5.348130 -0.000001 -0.000004 -40.487200 -62.844100 -82.266600 -24.328900 0.000322 -0.000009 -1.038330 -8.241660 -7.198850 -22.291500 -0.000108 -0.000004 43.805200 5.546650 -8.548980 -2.192480 -6.469440 -0.000000 -173.272000 -8.220210 3.067680 39.081100 -0.000007 -0.000012 0.029555 -0.095421 17.209800 40.985400 -0.000006 -0.000013 0.591005 10.573400 -71.363300 11.754300 -0.000000 0.000003 -0.002284 0.199851 -8.468300 -2.192510 6.469440 -0.000001 176.671000 4.915260 -174.933000 -39.081100 -0.002282 -0.040193 -0.014710 0.090468 11.281200 -40.985400 0.000008 0.000006 -10.118400 9.473670 -67.019100 -11.754300 -0.000006 -0.000006 -0.010752 0.276839 -5.324580
0.000000 0.000000 0.000000 0.000000 0.000000 -0.000000 0.408238 92.648600 3.574450 86.981100 -4.241370 2.706180 15.735700 0.000005 -0.000001 87.845900 87.979300 -92.821900 8.984550 -0.406207 -0.000000 -3.692990 0.345034 -9.944510 16.377300 -0.000001 -0.000001 0.476837 0.354234 -6.771670 6.456720 -0.000001 -0.000000 2.454400 3.692940 -19.817600 12.994200 -0.242716 4.980390 -92.834700 8.742240 -71.955300 5.348090 -0.000007 -0.000001 -59.367900 4.483500 2.672420 24.328600 0.000019 0.000005 13.012800 28.091700 -26.141000 22.291600 -0.000001 0.000005 1.533200 4.841930 10.517000 12.994500 -0.242716 -4.980390 94.782700 -8.900600 -61.596700 -5.348130 -0.000001 -0.000004 -40.415700 -62.731500 -82.034500 -24.328900 0.000322 -0.000009 -1.032280 -8.282330 -7.122720 -22.291500 -0.000108 -0.000004 43.814500 5.541810 -8.325600 -2.192480 -6.469440 -0.000000 -173.308000 -8.179390 3.095300 39.081100 -0.000007 -0.000012 0.030356 -0.098044 17.203700 40.985400 -0.000006 -0.000013 0.593419 10.506400 -71.383200 11.754300 -0.000000 0.000003 -0.002459 0.201957 -8.382620 -2.192510 6.469440 -0.000001 176.646000 4.869160 -174.923000 -39.081100 -0.002282 -0.040193 -0.014765 0.090477 11.313800 -40.985400 0.000008 0.000006 -10.121300 9.460170 -67.085300 -11.754300 -0.000006 -0.000006 -0.010999 0.278622 -5.251620
0.000000 0.000000 0.000000 0.000000 0.000000 -0.000000 0.421515 92.649200 3.572620 87.005900 -4.230420 2.710650 15.735700 0.000005 -0.000001 87.416000 87.969000 -92.367400 8.984550 -0.406207 -0.000000 -3.675340 0.310597 -9.896150 16.377300 -0.000001 -0.000001 0.616133 0.338546 -6.765820 6.456720 -0.000001 -0.000000 2.442620 3.666660 -19.616900 12.994200 -0.242716 4.980390 -92.822200 8.660880 -71.873200 5.348090 -0.000007 -0.000001 -59.344800 4.477090 2.633740 24.328600 0.000019 0.000005 13.065100 28.064200 -26.255800 22.291600 -0.000001 0.000005 1.510870 4.840280 10.549000 12.994500 -0.242716 -4.980390 94.748900 -8.849020 -61.629300 -5.348130 -0.000001 -0.000004 -40.301900 -62.715200 -81.764000 -24.328900 0.000322 -0.000009 -1.039910 -8.477210 -7.012750 -22.291500 -0.000108 -0.000004 43.534200 5.542880 -8.374440 -2.192480 -6.469440 -0.000000 -173.355000 -8.075040 3.119030 39.081100 -0.000007 -0.000012 0.030389 -0.098426 17.158500 40.985400 -0.000006 -0.000013 0.583711 10.426700 -71.341200 11.754300 -0.000000 0.000003 -0.002325 0.200342 -8.448300 -2.192510 6.469440 -0.000001 176.609000 4.865550 -174.942000 -39.081100 -0.002282 -0.040193 -0.014599 0.089401 11.343800 -40.985400 0.000008 0.000006 -10.291900 9.446710 -67.054800 -11.754300 -0.000006 -0.000006 -0.010899 0.277905 -5.280950
